<!DOCTYPE svg PUBLIC "-//W3C//DTD SVG 1.1//EN" "http://www.w3.org/Graphics/SVG/1.1/DTD/svg11.dtd"><svg xmlns:ev="http://www.w3.org/2001/xml-events" xmlns:xlink="http://www.w3.org/1999/xlink" xmlns="http://www.w3.org/2000/svg" xmlns:v="http://schemas.microsoft.com/visio/2003/SVGExtensions/" width="561.10368" height="189.94464" xml:space="preserve" color-interpolation-filters="sRGB" class="st10" version="1.1">  
 <style type="text/css">
	<![CDATA[
		.st1 {fill:#ffffff;stroke:none;stroke-linecap:round;stroke-linejoin:round;stroke-width:0.0169691}
		.st2 {fill:#000000;font-family:Arial,Helvetica,sans-serif;font-size:0.666664em}
		.st3 {fill:#1f1a17;font-family:Arial,Helvetica,sans-serif;font-size:0.666664em}
		.st4 {font-size:1em}
		.st5 {fill:#ffffff;visibility:hidden}
		.st6 {stroke:#000000;stroke-linecap:butt;stroke-width:0.8}
		.st7 {stroke:#000000;stroke-linecap:butt;stroke-width:0.5}
		.st8 {fill:none;stroke:none;stroke-linecap:butt;stroke-width:0.5}
		.st9 {stroke:#000000;stroke-dasharray:0.25,1;stroke-linecap:butt;stroke-width:0.25}
		.st10 {fill:none;fill-rule:evenodd;font-size:12px;overflow:visible;stroke-linecap:square;stroke-miterlimit:3}
	]]>
	</style> 
 <g> 
  <title>Page-1</title>  
  <g id="group1-1" transform="translate(0.8,-0.5)"> 
   <title>Sheet.1</title> 
   <g id="shape2-2" transform="translate(2.39808E-014,-102.023)"> 
    <title>Sheet.2</title> 
    <desc>
     N
    </desc>   
    <rect x="0" y="114.112" width="11.3386" height="28.3465" class="st1" /> 
    <text x="2.79" y="130.68" class="st2">
     N
    </text> 
   </g> 
   <g id="shape3-5" transform="translate(0.0377495,-130.37)"> 
    <title>Sheet.3</title> 
    <desc>
     31
    </desc>   
    <text x="1.2" y="139.19" class="st3">
     31
    </text> 
   </g> 
   <g id="shape4-7" transform="translate(11.3386,-130.322)"> 
    <title>Sheet.4</title> 
    <desc>
     30
    </desc>   
    <text x="1.23" y="139.16" class="st3">
     30
    </text> 
   </g> 
   <g id="shape5-9" transform="translate(22.6772,-130.37)"> 
    <title>Sheet.5</title> 
    <desc>
     29
    </desc>   
    <text x="1.23" y="139.19" class="st3">
     29
    </text> 
   </g> 
   <g id="shape6-11" transform="translate(34.0157,-130.37)"> 
    <title>Sheet.6</title> 
    <desc>
     28
    </desc>   
    <text x="1.23" y="139.19" class="st3">
     28
    </text> 
   </g> 
   <g id="shape7-13" transform="translate(45.3552,-130.37)"> 
    <title>Sheet.7</title> 
    <desc>
     27
    </desc>   
    <text x="1.23" y="139.19" class="st3">
     27
    </text> 
   </g> 
   <g id="shape8-15" transform="translate(56.6929,-130.37)"> 
    <title>Sheet.8</title> 
    <desc>
     26
    </desc>   
    <text x="1.23" y="139.19" class="st3">
     26
    </text> 
   </g> 
   <g id="shape9-17" transform="translate(68.0315,-130.37)"> 
    <title>Sheet.9</title> 
    <desc>
     25
    </desc>   
    <text x="1.23" y="139.19" class="st3">
     25
    </text> 
   </g> 
   <g id="shape10-19" transform="translate(79.3701,-130.37)"> 
    <title>Sheet.10</title> 
    <desc>
     24
    </desc>   
    <text x="1.23" y="139.19" class="st3">
     24
    </text> 
   </g> 
   <g id="shape11-21" transform="translate(90.7087,-130.37)"> 
    <title>Sheet.11</title> 
    <desc>
     23
    </desc>   
    <text x="1.23" y="139.19" class="st3">
     23
    </text> 
   </g> 
   <g id="shape12-23" transform="translate(124.724,-130.37)"> 
    <title>Sheet.12</title> 
    <desc>
     20
    </desc>   
    <text x="1.23" y="139.19" class="st3">
     20
    </text> 
   </g> 
   <g id="shape13-25" transform="translate(136.063,-130.37)"> 
    <title>Sheet.13</title> 
    <desc>
     19
    </desc>   
    <text x="1.23" y="139.19" class="st3">
     19
    </text> 
   </g> 
   <g id="shape14-27" transform="translate(170.079,-130.37)"> 
    <title>Sheet.14</title> 
    <desc>
     16
    </desc>   
    <text x="1.23" y="139.19" class="st3">
     16
    </text> 
   </g> 
   <g id="shape15-29" transform="translate(181.417,-130.37)"> 
    <title>Sheet.15</title> 
    <desc>
     15
    </desc>   
    <text x="1.23" y="139.19" class="st3">
     15
    </text> 
   </g> 
   <g id="shape16-31" transform="translate(238.11,-130.37)"> 
    <title>Sheet.16</title> 
    <desc>
     10
    </desc>   
    <text x="1.23" y="139.19" class="st3">
     10
    </text> 
   </g> 
   <g id="shape17-33" transform="translate(249.449,-130.37)"> 
    <title>Sheet.17</title> 
    <desc>
     9
    </desc>   
    <text x="3.45" y="139.19" class="st3">
     9
    </text> 
   </g> 
   <g id="shape18-35" transform="translate(260.787,-130.37)"> 
    <title>Sheet.18</title> 
    <desc>
     8
    </desc>   
    <text x="3.45" y="139.19" class="st3">
     8
    </text> 
   </g> 
   <g id="shape19-37" transform="translate(272.126,-130.37)"> 
    <title>Sheet.19</title> 
    <desc>
     7
    </desc>   
    <text x="3.45" y="139.19" class="st3">
     7
    </text> 
   </g> 
   <g id="shape20-39" transform="translate(283.465,-130.37)"> 
    <title>Sheet.20</title> 
    <desc>
     6
    </desc>   
    <text x="3.45" y="139.19" class="st3">
     6
    </text> 
   </g> 
   <g id="shape21-41" transform="translate(294.803,-130.37)"> 
    <title>Sheet.21</title> 
    <desc>
     5
    </desc>   
    <text x="3.45" y="139.19" class="st3">
     5
    </text> 
   </g> 
   <g id="shape22-43" transform="translate(306.142,-130.37)"> 
    <title>Sheet.22</title> 
    <desc>
     4
    </desc>   
    <text x="3.45" y="139.19" class="st3">
     4
    </text> 
   </g> 
   <g id="shape23-45" transform="translate(351.496,-130.37)"> 
    <title>Sheet.23</title> 
    <desc>
     0
    </desc>   
    <text x="3.45" y="139.19" class="st3">
     0
    </text> 
   </g> 
   <g id="shape24-47" transform="translate(11.3386,-102.023)"> 
    <title>Sheet.24</title> 
    <desc>
     Z
    </desc>   
    <rect x="0" y="114.112" width="11.3386" height="28.3465" class="st1" /> 
    <text x="3.23" y="130.68" class="st2">
     Z
    </text> 
   </g> 
   <g id="shape25-50" transform="translate(22.6772,-102.023)"> 
    <title>Sheet.25</title> 
    <desc>
     C
    </desc>   
    <rect x="0" y="114.112" width="11.3386" height="28.3465" class="st1" /> 
    <text x="2.79" y="130.68" class="st2">
     C
    </text> 
   </g> 
   <g id="shape26-53" transform="translate(34.0157,-102.023)"> 
    <title>Sheet.26</title> 
    <desc>
     V
    </desc>   
    <rect x="0" y="114.112" width="11.3386" height="28.3465" class="st1" /> 
    <text x="3.01" y="130.68" class="st2">
     V
    </text> 
   </g> 
   <g id="shape27-56" transform="translate(45.3543,-102.023)"> 
    <title>Sheet.27</title> 
    <desc>
     Q
    </desc>   
    <rect x="0" y="114.112" width="11.3386" height="28.3465" class="st1" /> 
    <text x="2.56" y="130.68" class="st2">
     Q
    </text> 
   </g> 
   <g id="shape28-59" transform="translate(53.1496,-102.023)"> 
    <title>Sheet.28</title> 
    <desc>
     DNM (RAZ)
    </desc>   
    <rect x="0" y="114.112" width="29.7638" height="28.3465" class="st1" /> 
    <text x="5.77" y="125.89" class="st2">
     DNM
     <tspan x="4.21" dy="9.5999616" class="st4">
      (
     </tspan>RAZ)
    </text> 
   </g> 
   <g id="shape29-63" transform="translate(79.3701,-102.023)"> 
    <title>Sheet.29</title> 
    <desc>
     J
    </desc>   
    <rect x="0" y="114.112" width="11.3386" height="28.3465" class="st1" /> 
    <text x="3.67" y="130.68" class="st2">
     J
    </text> 
   </g> 
   <g id="shape30-66" transform="translate(90.7087,-102.023)"> 
    <title>Sheet.30</title> 
    <desc>
     DNM (RAZ)
    </desc>   
    <rect x="0" y="114.112" width="45.3543" height="28.3465" class="st1" /> 
    <text x="13.57" y="125.89" class="st2">
     DNM
     <tspan x="12.01" dy="9.5999616" class="st4">
      (
     </tspan>RAZ)
    </text> 
   </g> 
   <g id="shape31-70" transform="translate(136.063,-102.023)"> 
    <title>Sheet.31</title> 
    <desc>
     GE[3:0]
    </desc>   
    <rect x="0" y="114.112" width="45.3543" height="28.3465" class="st1" /> 
    <text x="9.11" y="130.68" class="st2">
     GE[3:0]
    </text> 
   </g> 
   <g id="shape32-73" transform="translate(181.417,-102.023)"> 
    <title>Sheet.32</title> 
    <desc>
     DNM (RAZ)
    </desc>   
    <rect x="0" y="114.112" width="68.0315" height="28.3465" class="st1" /> 
    <text x="24.92" y="125.89" class="st2">
     DNM
     <tspan x="23.36" dy="9.5999616" class="st4">
      (
     </tspan>RAZ)
    </text> 
   </g> 
   <g id="shape33-77" transform="translate(249.449,-102.023)"> 
    <title>Sheet.33</title> 
    <desc>
     E
    </desc>   
    <rect x="0" y="114.112" width="11.3386" height="28.3465" class="st1" /> 
    <text x="3.01" y="130.68" class="st2">
     E
    </text> 
   </g> 
   <g id="shape34-80" transform="translate(260.787,-102.023)"> 
    <title>Sheet.34</title> 
    <desc>
     A
    </desc>   
    <rect x="0" y="114.112" width="11.3386" height="28.3465" class="st1" /> 
    <text x="3.01" y="130.68" class="st2">
     A
    </text> 
   </g> 
   <g id="shape35-83" transform="translate(272.126,-102.023)"> 
    <title>Sheet.35</title> 
    <desc>
     I
    </desc>   
    <rect x="0" y="114.112" width="11.3386" height="28.3465" class="st1" /> 
    <text x="4.56" y="130.68" class="st2">
     I
    </text> 
   </g> 
   <g id="shape36-86" transform="translate(283.465,-102.023)"> 
    <title>Sheet.36</title> 
    <desc>
     F
    </desc>   
    <rect x="0" y="114.112" width="11.3386" height="28.3465" class="st1" /> 
    <text x="3.23" y="130.68" class="st2">
     F
    </text> 
   </g> 
   <g id="shape37-89" transform="translate(294.803,-102.023)"> 
    <title>Sheet.37</title> 
    <desc>
     T
    </desc>   
    <rect x="0" y="114.112" width="11.3386" height="28.3465" class="st1" /> 
    <text x="3.23" y="130.68" class="st2">
     T
    </text> 
   </g> 
   <g id="shape38-92" transform="translate(306.142,-102.023)"> 
    <title>Sheet.38</title> 
    <desc>
     M[4:0]
    </desc>   
    <rect x="0" y="114.112" width="56.6929" height="28.3465" class="st1" /> 
    <text x="17.24" y="130.68" class="st2">
     M[4:0]
    </text> 
   </g> 
   <g id="shape39-95" transform="translate(0,-102.023)"> 
    <title>Sheet.39</title> 
    <rect x="0" y="114.112" width="362.835" height="28.3465" class="st5" /> 
    <rect x="0" y="114.112" width="362.835" height="28.3465" class="st6" /> 
   </g> 
   <g id="shape40-98" transform="translate(11.3386,-102.023)"> 
    <title>Sheet.40</title> 
    <path d="M0 114.11 L0 142.46" class="st6" /> 
   </g> 
   <g id="shape41-101" transform="translate(22.6772,-102.023)"> 
    <title>Sheet.41</title>  
    <path d="M0 114.11 L0 142.46" class="st6" /> 
   </g> 
   <g id="shape42-104" transform="translate(34.0157,-102.023)"> 
    <title>Sheet.42</title>  
    <path d="M0 114.11 L0 142.46" class="st6" /> 
   </g> 
   <g id="shape43-107" transform="translate(45.3543,-102.023)"> 
    <title>Sheet.43</title>  
    <path d="M0 114.11 L0 142.46" class="st6" /> 
   </g> 
   <g id="shape44-110" transform="translate(90.7087,-102.023)"> 
    <title>Sheet.44</title>  
    <path d="M0 114.11 L0 142.46" class="st6" /> 
   </g> 
   <g id="shape45-113" transform="translate(136.063,-102.023)"> 
    <title>Sheet.45</title>  
    <path d="M0 114.11 L0 142.46" class="st6" /> 
   </g> 
   <g id="shape46-116" transform="translate(181.417,-102.023)"> 
    <title>Sheet.46</title>  
    <path d="M0 114.11 L0 142.46" class="st6" /> 
   </g> 
   <g id="shape47-119" transform="translate(249.449,-102.023)"> 
    <title>Sheet.47</title>  
    <path d="M0 114.11 L0 142.46" class="st6" /> 
   </g> 
   <g id="shape48-122" transform="translate(260.787,-102.023)"> 
    <title>Sheet.48</title>  
    <path d="M0 114.11 L0 142.46" class="st6" /> 
   </g> 
   <g id="shape49-125" transform="translate(272.126,-102.023)"> 
    <title>Sheet.49</title>  
    <path d="M0 114.11 L0 142.46" class="st6" /> 
   </g> 
   <g id="shape50-128" transform="translate(283.465,-102.023)"> 
    <title>Sheet.50</title>  
    <path d="M0 114.11 L0 142.46" class="st6" /> 
   </g> 
   <g id="shape51-131" transform="translate(294.803,-102.023)"> 
    <title>Sheet.51</title>  
    <path d="M0 114.11 L0 142.46" class="st6" /> 
   </g> 
   <g id="shape52-134" transform="translate(306.142,-102.023)"> 
    <title>Sheet.52</title>  
    <path d="M0 114.11 L0 142.46" class="st6" /> 
   </g> 
   <g id="shape53-137" transform="translate(158.74,-79.3701)"> 
    <title>Sheet.53</title> 
    <path d="M0 131.12 L0 142.46 L8.5 142.46" class="st7" /> 
   </g> 
   <g id="shape54-140" transform="translate(170.079,-73.7008)"> 
    <title>Sheet.54</title> 
    <desc>
     Greater than or equal to
    </desc>   
    <rect x="0" y="131.12" width="90.7087" height="11.3386" class="st8" /> 
    <text x="1" y="134.39" class="st2">
     Greater than
     <tspan x="1" dy="9.5999616" class="st4">
      or equal to
     </tspan>
    </text> 
   </g> 
   <g id="shape55-144" transform="translate(170.079,-56.6929)"> 
    <title>Sheet.55</title> 
    <desc>
     Java bit
    </desc>   
    <rect x="0" y="131.12" width="39.685" height="11.3386" class="st8" /> 
    <text x="1" y="139.19" class="st2">
     Java bit
    </text> 
   </g> 
   <g id="shape56-147" transform="translate(85.0394,-62.3622)"> 
    <title>Sheet.56</title> 
    <path d="M0 102.77 L0 142.46 L82.2 142.46" class="st7" /> 
   </g> 
   <g id="shape57-150" transform="translate(51.0236,-51.0236)"> 
    <title>Sheet.57</title> 
    <path d="M0 91.43 L0 142.46 L116.22 142.46" class="st7" /> 
   </g> 
   <g id="shape58-153" transform="translate(39.685,-39.685)"> 
    <title>Sheet.58</title> 
    <path d="M0 80.1 L0 142.46 L127.56 142.46" class="st7" /> 
   </g> 
   <g id="shape59-156" transform="translate(28.3465,-28.3465)"> 
    <title>Sheet.59</title> 
    <path d="M0 68.76 L0 142.46 L138.9 142.46" class="st7" /> 
   </g> 
   <g id="shape60-159" transform="translate(17.0079,-17.0079)"> 
    <title>Sheet.60</title> 
    <path d="M0 57.42 L0 142.46 L150.24 142.46" class="st7" /> 
   </g> 
   <g id="shape61-162" transform="translate(5.66929,-5.66929)"> 
    <title>Sheet.61</title> 
    <path d="M0 46.08 L0 142.46 L161.57 142.46" class="st7" /> 
   </g> 
   <g id="shape62-165" transform="translate(170.079,-45.3543)"> 
    <title>Sheet.62</title> 
    <desc>
     Sticky overflow
    </desc>   
    <rect x="0" y="131.12" width="70.8661" height="11.3386" class="st8" /> 
    <text x="1" y="139.19" class="st2">
     Sticky overflow
    </text> 
   </g> 
   <g id="shape63-168" transform="translate(170.079,-34.0157)"> 
    <title>Sheet.63</title> 
    <desc>
     Overflow
    </desc>   
    <rect x="0" y="131.12" width="70.8661" height="11.3386" class="st8" /> 
    <text x="1" y="139.19" class="st2">
     Overflow
    </text> 
   </g> 
   <g id="shape64-171" transform="translate(170.079,-22.6772)"> 
    <title>Sheet.64</title> 
    <desc>
     Carry/Borrow/Extend
    </desc>   
    <rect x="0" y="131.12" width="82.2047" height="11.3386" class="st8" /> 
    <text x="1" y="139.19" class="st2">
     Carry/Borrow/Extend
    </text> 
   </g> 
   <g id="shape65-174" transform="translate(170.079,-11.3386)"> 
    <title>Sheet.65</title> 
    <desc>
     Zero
    </desc>   
    <rect x="0" y="131.12" width="70.8661" height="11.3386" class="st8" /> 
    <text x="1" y="139.19" class="st2">
     Zero
    </text> 
   </g> 
   <g id="shape66-177" transform="translate(170.079,0)"> 
    <title>Sheet.66</title> 
    <desc>
     Negative/Less than
    </desc>   
    <rect x="0" y="131.12" width="76.5354" height="11.3386" class="st8" /> 
    <text x="1" y="139.19" class="st2">
     Negative/Less than
    </text> 
   </g> 
   <g id="shape67-180" transform="translate(334.488,-79.3701)"> 
    <title>Sheet.67</title> 
    <path d="M0 131.12 L0 142.46 L8.5 142.46" class="st7" /> 
   </g> 
   <g id="shape68-183" transform="translate(345.827,-73.7008)"> 
    <title>Sheet.68</title> 
    <desc>
     Mode bits
    </desc>   
    <rect x="0" y="131.12" width="53.8583" height="11.3386" class="st8" /> 
    <text x="1" y="139.19" class="st2">
     Mode bits
    </text> 
   </g> 
   <g id="shape69-186" transform="translate(300.472,-68.0315)"> 
    <title>Sheet.69</title> 
    <path d="M0 108.44 L0 142.46 L42.52 142.46" class="st7" /> 
   </g> 
   <g id="shape70-189" transform="translate(345.827,-62.3622)"> 
    <title>Sheet.70</title> 
    <desc>
     State bit
    </desc>   
    <rect x="0" y="131.12" width="53.8583" height="11.3386" class="st8" /> 
    <text x="1" y="139.19" class="st2">
     State bit
    </text> 
   </g> 
   <g id="shape71-192" transform="translate(289.134,-56.6929)"> 
    <title>Sheet.71</title> 
    <path d="M0 97.1 L0 142.46 L53.86 142.46" class="st7" /> 
   </g> 
   <g id="shape72-195" transform="translate(345.827,-51.0236)"> 
    <title>Sheet.72</title> 
    <desc>
     FIQ disable
    </desc>   
    <rect x="0" y="131.12" width="53.8583" height="11.3386" class="st8" /> 
    <text x="1" y="139.19" class="st2">
     FIQ disable
    </text> 
   </g> 
   <g id="shape73-198" transform="translate(277.795,-45.3543)"> 
    <title>Sheet.73</title> 
    <path d="M0 85.77 L0 142.46 L65.2 142.46" class="st7" /> 
   </g> 
   <g id="shape74-201" transform="translate(345.827,-39.685)"> 
    <title>Sheet.74</title> 
    <desc>
     IRQ disable
    </desc>   
    <rect x="0" y="131.12" width="53.8583" height="11.3386" class="st8" /> 
    <text x="1" y="139.19" class="st2">
     IRQ disable
    </text> 
   </g> 
   <g id="shape75-204" transform="translate(266.457,-34.0157)"> 
    <title>Sheet.75</title> 
    <path d="M0 74.43 L0 142.46 L76.54 142.46" class="st7" /> 
   </g> 
   <g id="shape76-207" transform="translate(345.827,-28.3465)"> 
    <title>Sheet.76</title> 
    <desc>
     Imprecise abort bit
    </desc>   
    <rect x="0" y="131.12" width="73.7008" height="11.3386" class="st8" /> 
    <text x="1" y="139.19" class="st2">
     Imprecise abort bit
    </text> 
   </g> 
   <g id="shape77-210" transform="translate(255.118,-22.6772)"> 
    <title>Sheet.77</title> 
    <path d="M0 63.09 L0 142.46 L87.87 142.46" class="st7" /> 
   </g> 
   <g id="shape78-213" transform="translate(345.827,-17.0079)"> 
    <title>Sheet.78</title> 
    <desc>
     Data endianess bit
    </desc>   
    <rect x="0" y="131.12" width="73.7008" height="11.3386" class="st8" /> 
    <text x="1" y="139.19" class="st2">
     Data endianess bit
    </text> 
   </g> 
   <g id="group79-216" transform="translate(56.6929,-102.023)"> 
    <title>Sheet.79</title> 
    <g id="shape80-217"> 
     <title>Sheet.80</title>  
     <path d="M0 114.11 L0 142.46" class="st6" /> 
    </g> 
    <g id="shape81-220" transform="translate(22.6772,0)"> 
     <title>Sheet.81</title>  
     <path d="M0 114.11 L0 142.46" class="st6" /> 
    </g> 
   </g> 
   <g id="shape82-223" transform="translate(459.939,0.75) rotate(90)"> 
    <title>Time division.36</title> 
    <path d="M0 142.46 L11.34 142.46" class="st9" /> 
   </g> 
   <g id="shape83-226" transform="translate(414.584,0.75) rotate(90)"> 
    <title>Time division.103</title> 
    <path d="M0 142.46 L11.34 142.46" class="st9" /> 
   </g> 
   <g id="shape84-229" transform="translate(369.23,0.75) rotate(90)"> 
    <title>Time division.104</title> 
    <path d="M0 142.46 L11.34 142.46" class="st9" /> 
   </g> 
   <g id="shape85-232" transform="translate(323.876,0.75) rotate(90)"> 
    <title>Time division.105</title> 
    <path d="M0 142.46 L11.34 142.46" class="st9" /> 
   </g> 
   <g id="shape86-235" transform="translate(278.521,0.75) rotate(90)"> 
    <title>Time division.106</title> 
    <path d="M0 142.46 L11.34 142.46" class="st9" /> 
   </g> 
   <g id="shape87-238" transform="translate(233.167,0.75) rotate(90)"> 
    <title>Time division.107</title> 
    <path d="M0 142.46 L11.34 142.46" class="st9" /> 
   </g> 
   <g id="shape88-241" transform="translate(187.813,0.75) rotate(90)"> 
    <title>Time division.108</title> 
    <path d="M0 142.46 L11.34 142.46" class="st9" /> 
   </g> 
   <g id="shape89-244" transform="translate(505.293,0.75) rotate(90)"> 
    <title>Time division.5</title> 
    <path d="M0 142.46 L11.34 142.46" class="st9" /> 
   </g> 
   <g id="shape90-247" transform="translate(142.458,0.75) rotate(90)"> 
    <title>Time division.109</title> 
    <path d="M0 142.46 L11.34 142.46" class="st9" /> 
   </g> 
   <g id="shape91-250" transform="translate(278.521,40.411) rotate(90)"> 
    <title>Callout</title> 
    <path d="M-0 97.1 L5.67 97.1 L8.5 99.94 L8.5 116.95 L11.34 119.78 L8.5 122.62 L8.5 139.62 L5.67 142.46 L-0 142.46" class="st7" /> 
   </g> 
   <g id="shape92-253" transform="translate(448.6,40.411) rotate(90)"> 
    <title>Callout.2</title> 
    <path d="M-0 85.77 L5.67 85.77 L8.5 88.6 L8.5 111.28 L11.34 114.11 L8.5 116.95 L8.5 139.62 L5.67 142.46 L-0 142.46" class="st7" /> 
   </g> 
  </g> 
 </g> 
</svg>