<!DOCTYPE svg PUBLIC "-//W3C//DTD SVG 1.1//EN" "http://www.w3.org/Graphics/SVG/1.1/DTD/svg11.dtd"><svg xmlns="http://www.w3.org/2000/svg" xmlns:xlink="http://www.w3.org/1999/xlink" xmlns:ev="http://www.w3.org/2001/xml-events" width="556.924" height="484.596" xml:space="preserve" color-interpolation-filters="sRGB" class="st5" version="1.1"> 
 <style type="text/css"><![CDATA[
	
		.st1 {fill:#000000;font-family:Arial,Helvetica,sans-serif;font-size:0.833336em}
		.st2 {fill:#000000;font-family:Arial,Helvetica,sans-serif;font-size:0.666664em}
		.st3 {fill:none;stroke:#000000;stroke-linecap:butt;stroke-width:0.5px}
		.st4 {fill:#c0c0c0;stroke:#000000;stroke-linecap:butt;stroke-width:0.5px}
		.st5 {fill:none;fill-rule:evenodd;font-size:12px;overflow:visible;stroke-linecap:square;stroke-miterlimit:3}
	
	]]></style> 
 <g> 
  <title>Page-1</title> 
  <g id="shape1-1" transform="translate(94.0433,-349.274)"> 
   <title>Sheet.1</title> 
   <desc>
    ARM state general registers and program counter
   </desc> 
   <text x="5.02" y="359.36" class="st1">
    ARM state general registers and program counter
   </text> 
  </g> 
  <g id="shape2-3" transform="translate(0.5,-326.597)"> 
   <title>Sheet.2</title> 
   <desc>
    System and User
   </desc> 
   <text x="0.5" y="360.18" class="st2">
    System and User
   </text> 
  </g> 
  <g id="shape3-5" transform="translate(122.39,-65.8096)"> 
   <title>Sheet.3</title> 
   <desc>
    ARM state program status registers
   </desc> 
   <text x="7.81" y="359.36" class="st1">
    ARM state program status registers
   </text> 
  </g> 
  <g id="shape4-7" transform="translate(14.6732,-3.33465)"> 
   <title>Sheet.4</title> 
   <desc>
    = banked register
   </desc> 
   <text x="5.83" y="361.6" class="st2">
    = banked register
   </text> 
  </g> 
  <g id="shape5-9" transform="translate(142.232,-326.597)"> 
   <title>Sheet.5</title> 
   <desc>
    Supervisor
   </desc> 
   <text x="12.06" y="360.18" class="st2">
    Supervisor
   </text> 
  </g> 
  <g id="shape6-11" transform="translate(213.098,-326.597)"> 
   <title>Sheet.6</title> 
   <desc>
    Abort
   </desc> 
   <text x="21.61" y="360.18" class="st2">
    Abort
   </text> 
  </g> 
  <g id="shape7-13" transform="translate(283.965,-326.597)"> 
   <title>Sheet.7</title> 
   <desc>
    IRQ
   </desc> 
   <text x="24.06" y="360.18" class="st2">
    IRQ
   </text> 
  </g> 
  <g id="shape8-15" transform="translate(354.831,-326.597)"> 
   <title>Sheet.8</title> 
   <desc>
    Undefined
   </desc> 
   <text x="12.94" y="360.18" class="st2">
    Undefined
   </text> 
  </g> 
  <g id="shape9-17" transform="translate(0.5,-309.589)"> 
   <title>Sheet.9</title> 
   <desc>
    r0
   </desc> 
   <rect x="0" y="349.274" width="62.3622" height="14.1732" class="st3" /> 
   <text x="12.35" y="358.76" class="st2">
    r0
   </text> 
  </g> 
  <g id="shape10-20" transform="translate(0.5,-295.416)"> 
   <title>Sheet.10</title> 
   <desc>
    r1
   </desc> 
   <rect x="0" y="349.274" width="62.3622" height="14.1732" class="st3" /> 
   <text x="12.35" y="358.76" class="st2">
    r1
   </text> 
  </g> 
  <g id="shape11-23" transform="translate(0.5,-281.243)"> 
   <title>Sheet.11</title> 
   <desc>
    r2
   </desc> 
   <rect x="0" y="349.274" width="62.3622" height="14.1732" class="st3" /> 
   <text x="12.35" y="358.76" class="st2">
    r2
   </text> 
  </g> 
  <g id="shape12-26" transform="translate(0.5,-267.069)"> 
   <title>Sheet.12</title> 
   <desc>
    r3
   </desc> 
   <rect x="0" y="349.274" width="62.3622" height="14.1732" class="st3" /> 
   <text x="12.35" y="358.76" class="st2">
    r3
   </text> 
  </g> 
  <g id="shape13-29" transform="translate(0.5,-252.896)"> 
   <title>Sheet.13</title> 
   <desc>
    r4
   </desc> 
   <rect x="0" y="349.274" width="62.3622" height="14.1732" class="st3" /> 
   <text x="12.35" y="358.76" class="st2">
    r4
   </text> 
  </g> 
  <g id="shape14-32" transform="translate(0.5,-238.723)"> 
   <title>Sheet.14</title> 
   <desc>
    r5
   </desc> 
   <rect x="0" y="349.274" width="62.3622" height="14.1732" class="st3" /> 
   <text x="12.35" y="358.76" class="st2">
    r5
   </text> 
  </g> 
  <g id="shape15-35" transform="translate(0.5,-224.55)"> 
   <title>Sheet.15</title> 
   <desc>
    r6
   </desc> 
   <rect x="0" y="349.274" width="62.3622" height="14.1732" class="st3" /> 
   <text x="12.35" y="358.76" class="st2">
    r6
   </text> 
  </g> 
  <g id="shape16-38" transform="translate(0.5,-210.377)"> 
   <title>Sheet.16</title> 
   <desc>
    r7
   </desc> 
   <rect x="0" y="349.274" width="62.3622" height="14.1732" class="st3" /> 
   <text x="12.35" y="358.76" class="st2">
    r7
   </text> 
  </g> 
  <g id="shape17-41" transform="translate(0.5,-196.203)"> 
   <title>Sheet.17</title> 
   <desc>
    r8
   </desc> 
   <rect x="0" y="349.274" width="62.3622" height="14.1732" class="st3" /> 
   <text x="12.35" y="358.76" class="st2">
    r8
   </text> 
  </g> 
  <g id="shape18-44" transform="translate(0.5,-182.03)"> 
   <title>Sheet.18</title> 
   <desc>
    r9
   </desc> 
   <rect x="0" y="349.274" width="62.3622" height="14.1732" class="st3" /> 
   <text x="12.35" y="358.76" class="st2">
    r9
   </text> 
  </g> 
  <g id="shape19-47" transform="translate(0.5,-167.857)"> 
   <title>Sheet.19</title> 
   <desc>
    r10
   </desc> 
   <rect x="0" y="349.274" width="62.3622" height="14.1732" class="st3" /> 
   <text x="12.35" y="358.76" class="st2">
    r10
   </text> 
  </g> 
  <g id="shape20-50" transform="translate(0.5,-153.684)"> 
   <title>Sheet.20</title> 
   <desc>
    r11
   </desc> 
   <rect x="0" y="349.274" width="62.3622" height="14.1732" class="st3" /> 
   <text x="12.35" y="358.76" class="st2">
    r11
   </text> 
  </g> 
  <g id="shape21-53" transform="translate(0.5,-139.51)"> 
   <title>Sheet.21</title> 
   <desc>
    r12
   </desc> 
   <rect x="0" y="349.274" width="62.3622" height="14.1732" class="st3" /> 
   <text x="12.35" y="358.76" class="st2">
    r12
   </text> 
  </g> 
  <g id="shape22-56" transform="translate(0.5,-125.337)"> 
   <title>Sheet.22</title> 
   <desc>
    r13
   </desc> 
   <rect x="0" y="349.274" width="62.3622" height="14.1732" class="st3" /> 
   <text x="12.35" y="358.76" class="st2">
    r13
   </text> 
  </g> 
  <g id="shape23-59" transform="translate(0.5,-111.164)"> 
   <title>Sheet.23</title> 
   <desc>
    r14
   </desc> 
   <rect x="0" y="349.274" width="62.3622" height="14.1732" class="st3" /> 
   <text x="12.35" y="358.76" class="st2">
    r14
   </text> 
  </g> 
  <g id="shape24-62" transform="translate(0.5,-96.9907)"> 
   <title>Sheet.24</title> 
   <desc>
    r15
   </desc> 
   <rect x="0" y="349.274" width="62.3622" height="14.1732" class="st3" /> 
   <text x="12.35" y="358.76" class="st2">
    r15
   </text> 
  </g> 
  <g id="shape25-65" transform="translate(71.3661,-326.597)"> 
   <title>Sheet.25</title> 
   <desc>
    FIQ
   </desc> 
   <text x="24.51" y="360.18" class="st2">
    FIQ
   </text> 
  </g> 
  <g id="shape26-67" transform="translate(71.3661,-309.589)"> 
   <title>Sheet.26</title> 
   <desc>
    r0
   </desc> 
   <rect x="0" y="349.274" width="62.3622" height="14.1732" class="st3" /> 
   <text x="12.35" y="358.76" class="st2">
    r0
   </text> 
  </g> 
  <g id="shape27-70" transform="translate(71.3661,-295.416)"> 
   <title>Sheet.27</title> 
   <desc>
    r1
   </desc> 
   <rect x="0" y="349.274" width="62.3622" height="14.1732" class="st3" /> 
   <text x="12.35" y="358.76" class="st2">
    r1
   </text> 
  </g> 
  <g id="shape28-73" transform="translate(71.3661,-281.243)"> 
   <title>Sheet.28</title> 
   <desc>
    r2
   </desc> 
   <rect x="0" y="349.274" width="62.3622" height="14.1732" class="st3" /> 
   <text x="12.35" y="358.76" class="st2">
    r2
   </text> 
  </g> 
  <g id="shape29-76" transform="translate(71.3661,-267.069)"> 
   <title>Sheet.29</title> 
   <desc>
    r3
   </desc> 
   <rect x="0" y="349.274" width="62.3622" height="14.1732" class="st3" /> 
   <text x="12.35" y="358.76" class="st2">
    r3
   </text> 
  </g> 
  <g id="shape30-79" transform="translate(71.3661,-252.896)"> 
   <title>Sheet.30</title> 
   <desc>
    r4
   </desc> 
   <rect x="0" y="349.274" width="62.3622" height="14.1732" class="st3" /> 
   <text x="12.35" y="358.76" class="st2">
    r4
   </text> 
  </g> 
  <g id="shape31-82" transform="translate(71.3661,-238.723)"> 
   <title>Sheet.31</title> 
   <desc>
    r5
   </desc> 
   <rect x="0" y="349.274" width="62.3622" height="14.1732" class="st3" /> 
   <text x="12.35" y="358.76" class="st2">
    r5
   </text> 
  </g> 
  <g id="shape32-85" transform="translate(71.3661,-224.55)"> 
   <title>Sheet.32</title> 
   <desc>
    r6
   </desc> 
   <rect x="0" y="349.274" width="62.3622" height="14.1732" class="st3" /> 
   <text x="12.35" y="358.76" class="st2">
    r6
   </text> 
  </g> 
  <g id="shape33-88" transform="translate(71.3661,-210.377)"> 
   <title>Sheet.33</title> 
   <desc>
    r7
   </desc> 
   <rect x="0" y="349.274" width="62.3622" height="14.1732" class="st3" /> 
   <text x="12.35" y="358.76" class="st2">
    r7
   </text> 
  </g> 
  <g id="shape34-91" transform="translate(71.3661,-196.203)"> 
   <title>Sheet.34</title> 
   <desc>
    r8_fiq
   </desc> 
   <rect x="0" y="349.274" width="62.3622" height="14.1732" class="st3" /> 
   <text x="12.35" y="358.76" class="st2">
    r8_fiq
   </text> 
  </g> 
  <g id="shape35-94" transform="translate(71.3661,-182.03)"> 
   <title>Sheet.35</title> 
   <desc>
    r9_fiq
   </desc> 
   <rect x="0" y="349.274" width="62.3622" height="14.1732" class="st3" /> 
   <text x="12.35" y="358.76" class="st2">
    r9_fiq
   </text> 
  </g> 
  <g id="shape36-97" transform="translate(71.3661,-167.857)"> 
   <title>Sheet.36</title> 
   <desc>
    r10_fiq
   </desc> 
   <rect x="0" y="349.274" width="62.3622" height="14.1732" class="st3" /> 
   <text x="12.35" y="358.76" class="st2">
    r10_fiq
   </text> 
  </g> 
  <g id="shape37-100" transform="translate(71.3661,-153.684)"> 
   <title>Sheet.37</title> 
   <desc>
    r11_fiq
   </desc> 
   <rect x="0" y="349.274" width="62.3622" height="14.1732" class="st3" /> 
   <text x="12.35" y="358.76" class="st2">
    r11_fiq
   </text> 
  </g> 
  <g id="shape38-103" transform="translate(71.3661,-139.51)"> 
   <title>Sheet.38</title> 
   <desc>
    r12_fiq
   </desc> 
   <rect x="0" y="349.274" width="62.3622" height="14.1732" class="st3" /> 
   <text x="12.35" y="358.76" class="st2">
    r12_fiq
   </text> 
  </g> 
  <g id="shape39-106" transform="translate(71.3661,-125.337)"> 
   <title>Sheet.39</title> 
   <desc>
    r13_fiq
   </desc> 
   <rect x="0" y="349.274" width="62.3622" height="14.1732" class="st3" /> 
   <text x="12.35" y="358.76" class="st2">
    r13_fiq
   </text> 
  </g> 
  <g id="shape40-109" transform="translate(71.3661,-111.164)"> 
   <title>Sheet.40</title> 
   <desc>
    r14_fiq
   </desc> 
   <rect x="0" y="349.274" width="62.3622" height="14.1732" class="st3" /> 
   <text x="12.35" y="358.76" class="st2">
    r14_fiq
   </text> 
  </g> 
  <g id="shape41-112" transform="translate(71.3661,-96.9907)"> 
   <title>Sheet.41</title> 
   <desc>
    r15 (PC)
   </desc> 
   <rect x="0" y="349.274" width="62.3622" height="14.1732" class="st3" /> 
   <text x="12.35" y="358.76" class="st2">
    r15 (PC)
   </text> 
  </g> 
  <g id="shape42-115" transform="translate(142.232,-309.589)"> 
   <title>Sheet.42</title> 
   <desc>
    r0
   </desc> 
   <rect x="0" y="349.274" width="62.3622" height="14.1732" class="st3" /> 
   <text x="12.35" y="358.76" class="st2">
    r0
   </text> 
  </g> 
  <g id="shape43-118" transform="translate(142.232,-295.416)"> 
   <title>Sheet.43</title> 
   <desc>
    r1
   </desc> 
   <rect x="0" y="349.274" width="62.3622" height="14.1732" class="st3" /> 
   <text x="12.35" y="358.76" class="st2">
    r1
   </text> 
  </g> 
  <g id="shape44-121" transform="translate(142.232,-281.243)"> 
   <title>Sheet.44</title> 
   <desc>
    r2
   </desc> 
   <rect x="0" y="349.274" width="62.3622" height="14.1732" class="st3" /> 
   <text x="12.35" y="358.76" class="st2">
    r2
   </text> 
  </g> 
  <g id="shape45-124" transform="translate(142.232,-267.069)"> 
   <title>Sheet.45</title> 
   <desc>
    r3
   </desc> 
   <rect x="0" y="349.274" width="62.3622" height="14.1732" class="st3" /> 
   <text x="12.35" y="358.76" class="st2">
    r3
   </text> 
  </g> 
  <g id="shape46-127" transform="translate(142.232,-252.896)"> 
   <title>Sheet.46</title> 
   <desc>
    r4
   </desc> 
   <rect x="0" y="349.274" width="62.3622" height="14.1732" class="st3" /> 
   <text x="12.35" y="358.76" class="st2">
    r4
   </text> 
  </g> 
  <g id="shape47-130" transform="translate(142.232,-238.723)"> 
   <title>Sheet.47</title> 
   <desc>
    r5
   </desc> 
   <rect x="0" y="349.274" width="62.3622" height="14.1732" class="st3" /> 
   <text x="12.35" y="358.76" class="st2">
    r5
   </text> 
  </g> 
  <g id="shape48-133" transform="translate(142.232,-224.55)"> 
   <title>Sheet.48</title> 
   <desc>
    r6
   </desc> 
   <rect x="0" y="349.274" width="62.3622" height="14.1732" class="st3" /> 
   <text x="12.35" y="358.76" class="st2">
    r6
   </text> 
  </g> 
  <g id="shape49-136" transform="translate(142.232,-210.377)"> 
   <title>Sheet.49</title> 
   <desc>
    r7
   </desc> 
   <rect x="0" y="349.274" width="62.3622" height="14.1732" class="st3" /> 
   <text x="12.35" y="358.76" class="st2">
    r7
   </text> 
  </g> 
  <g id="shape50-139" transform="translate(142.232,-196.203)"> 
   <title>Sheet.50</title> 
   <desc>
    r8
   </desc> 
   <rect x="0" y="349.274" width="62.3622" height="14.1732" class="st3" /> 
   <text x="12.35" y="358.76" class="st2">
    r8
   </text> 
  </g> 
  <g id="shape51-142" transform="translate(142.232,-182.03)"> 
   <title>Sheet.51</title> 
   <desc>
    r9
   </desc> 
   <rect x="0" y="349.274" width="62.3622" height="14.1732" class="st3" /> 
   <text x="12.35" y="358.76" class="st2">
    r9
   </text> 
  </g> 
  <g id="shape52-145" transform="translate(142.232,-167.857)"> 
   <title>Sheet.52</title> 
   <desc>
    r10
   </desc> 
   <rect x="0" y="349.274" width="62.3622" height="14.1732" class="st3" /> 
   <text x="12.35" y="358.76" class="st2">
    r10
   </text> 
  </g> 
  <g id="shape53-148" transform="translate(142.232,-153.684)"> 
   <title>Sheet.53</title> 
   <desc>
    r11
   </desc> 
   <rect x="0" y="349.274" width="62.3622" height="14.1732" class="st3" /> 
   <text x="12.35" y="358.76" class="st2">
    r11
   </text> 
  </g> 
  <g id="shape54-151" transform="translate(142.232,-139.51)"> 
   <title>Sheet.54</title> 
   <desc>
    r12
   </desc> 
   <rect x="0" y="349.274" width="62.3622" height="14.1732" class="st3" /> 
   <text x="12.35" y="358.76" class="st2">
    r12
   </text> 
  </g> 
  <g id="shape55-154" transform="translate(142.232,-125.337)"> 
   <title>Sheet.55</title> 
   <desc>
    r13_svc
   </desc> 
   <rect x="0" y="349.274" width="62.3622" height="14.1732" class="st3" /> 
   <text x="12.35" y="358.76" class="st2">
    r13_svc
   </text> 
  </g> 
  <g id="shape56-157" transform="translate(142.232,-111.164)"> 
   <title>Sheet.56</title> 
   <desc>
    r14_svc
   </desc> 
   <rect x="0" y="349.274" width="62.3622" height="14.1732" class="st3" /> 
   <text x="12.35" y="358.76" class="st2">
    r14_svc
   </text> 
  </g> 
  <g id="shape57-160" transform="translate(213.098,-309.589)"> 
   <title>Sheet.57</title> 
   <desc>
    r0
   </desc> 
   <rect x="0" y="349.274" width="62.3622" height="14.1732" class="st3" /> 
   <text x="12.35" y="358.76" class="st2">
    r0
   </text> 
  </g> 
  <g id="shape58-163" transform="translate(213.098,-295.416)"> 
   <title>Sheet.58</title> 
   <desc>
    r1
   </desc> 
   <rect x="0" y="349.274" width="62.3622" height="14.1732" class="st3" /> 
   <text x="12.35" y="358.76" class="st2">
    r1
   </text> 
  </g> 
  <g id="shape59-166" transform="translate(213.098,-281.243)"> 
   <title>Sheet.59</title> 
   <desc>
    r2
   </desc> 
   <rect x="0" y="349.274" width="62.3622" height="14.1732" class="st3" /> 
   <text x="12.35" y="358.76" class="st2">
    r2
   </text> 
  </g> 
  <g id="shape60-169" transform="translate(213.098,-267.069)"> 
   <title>Sheet.60</title> 
   <desc>
    r3
   </desc> 
   <rect x="0" y="349.274" width="62.3622" height="14.1732" class="st3" /> 
   <text x="12.35" y="358.76" class="st2">
    r3
   </text> 
  </g> 
  <g id="shape61-172" transform="translate(213.098,-252.896)"> 
   <title>Sheet.61</title> 
   <desc>
    r4
   </desc> 
   <rect x="0" y="349.274" width="62.3622" height="14.1732" class="st3" /> 
   <text x="12.35" y="358.76" class="st2">
    r4
   </text> 
  </g> 
  <g id="shape62-175" transform="translate(213.098,-238.723)"> 
   <title>Sheet.62</title> 
   <desc>
    r5
   </desc> 
   <rect x="0" y="349.274" width="62.3622" height="14.1732" class="st3" /> 
   <text x="12.35" y="358.76" class="st2">
    r5
   </text> 
  </g> 
  <g id="shape63-178" transform="translate(213.098,-224.55)"> 
   <title>Sheet.63</title> 
   <desc>
    r6
   </desc> 
   <rect x="0" y="349.274" width="62.3622" height="14.1732" class="st3" /> 
   <text x="12.35" y="358.76" class="st2">
    r6
   </text> 
  </g> 
  <g id="shape64-181" transform="translate(213.098,-210.377)"> 
   <title>Sheet.64</title> 
   <desc>
    r7
   </desc> 
   <rect x="0" y="349.274" width="62.3622" height="14.1732" class="st3" /> 
   <text x="12.35" y="358.76" class="st2">
    r7
   </text> 
  </g> 
  <g id="shape65-184" transform="translate(213.098,-196.203)"> 
   <title>Sheet.65</title> 
   <desc>
    r8
   </desc> 
   <rect x="0" y="349.274" width="62.3622" height="14.1732" class="st3" /> 
   <text x="12.35" y="358.76" class="st2">
    r8
   </text> 
  </g> 
  <g id="shape66-187" transform="translate(213.098,-182.03)"> 
   <title>Sheet.66</title> 
   <desc>
    r9
   </desc> 
   <rect x="0" y="349.274" width="62.3622" height="14.1732" class="st3" /> 
   <text x="12.35" y="358.76" class="st2">
    r9
   </text> 
  </g> 
  <g id="shape67-190" transform="translate(213.098,-167.857)"> 
   <title>Sheet.67</title> 
   <desc>
    r10
   </desc> 
   <rect x="0" y="349.274" width="62.3622" height="14.1732" class="st3" /> 
   <text x="12.35" y="358.76" class="st2">
    r10
   </text> 
  </g> 
  <g id="shape68-193" transform="translate(213.098,-153.684)"> 
   <title>Sheet.68</title> 
   <desc>
    r11
   </desc> 
   <rect x="0" y="349.274" width="62.3622" height="14.1732" class="st3" /> 
   <text x="12.35" y="358.76" class="st2">
    r11
   </text> 
  </g> 
  <g id="shape69-196" transform="translate(213.098,-139.51)"> 
   <title>Sheet.69</title> 
   <desc>
    r12
   </desc> 
   <rect x="0" y="349.274" width="62.3622" height="14.1732" class="st3" /> 
   <text x="12.35" y="358.76" class="st2">
    r12
   </text> 
  </g> 
  <g id="shape70-199" transform="translate(213.098,-125.337)"> 
   <title>Sheet.70</title> 
   <desc>
    r13_abt
   </desc> 
   <rect x="0" y="349.274" width="62.3622" height="14.1732" class="st3" /> 
   <text x="12.35" y="358.76" class="st2">
    r13_abt
   </text> 
  </g> 
  <g id="shape71-202" transform="translate(213.098,-111.164)"> 
   <title>Sheet.71</title> 
   <desc>
    r14_abt
   </desc> 
   <rect x="0" y="349.274" width="62.3622" height="14.1732" class="st3" /> 
   <text x="12.35" y="358.76" class="st2">
    r14_abt
   </text> 
  </g> 
  <g id="shape72-205" transform="translate(283.965,-309.589)"> 
   <title>Sheet.72</title> 
   <desc>
    r0
   </desc> 
   <rect x="0" y="349.274" width="62.3622" height="14.1732" class="st3" /> 
   <text x="12.35" y="358.76" class="st2">
    r0
   </text> 
  </g> 
  <g id="shape73-208" transform="translate(283.965,-295.416)"> 
   <title>Sheet.73</title> 
   <desc>
    r1
   </desc> 
   <rect x="0" y="349.274" width="62.3622" height="14.1732" class="st3" /> 
   <text x="12.35" y="358.76" class="st2">
    r1
   </text> 
  </g> 
  <g id="shape74-211" transform="translate(283.965,-281.243)"> 
   <title>Sheet.74</title> 
   <desc>
    r2
   </desc> 
   <rect x="0" y="349.274" width="62.3622" height="14.1732" class="st3" /> 
   <text x="12.35" y="358.76" class="st2">
    r2
   </text> 
  </g> 
  <g id="shape75-214" transform="translate(283.965,-267.069)"> 
   <title>Sheet.75</title> 
   <desc>
    r3
   </desc> 
   <rect x="0" y="349.274" width="62.3622" height="14.1732" class="st3" /> 
   <text x="12.35" y="358.76" class="st2">
    r3
   </text> 
  </g> 
  <g id="shape76-217" transform="translate(283.965,-252.896)"> 
   <title>Sheet.76</title> 
   <desc>
    r4
   </desc> 
   <rect x="0" y="349.274" width="62.3622" height="14.1732" class="st3" /> 
   <text x="12.35" y="358.76" class="st2">
    r4
   </text> 
  </g> 
  <g id="shape77-220" transform="translate(283.965,-238.723)"> 
   <title>Sheet.77</title> 
   <desc>
    r5
   </desc> 
   <rect x="0" y="349.274" width="62.3622" height="14.1732" class="st3" /> 
   <text x="12.35" y="358.76" class="st2">
    r5
   </text> 
  </g> 
  <g id="shape78-223" transform="translate(283.965,-224.55)"> 
   <title>Sheet.78</title> 
   <desc>
    r6
   </desc> 
   <rect x="0" y="349.274" width="62.3622" height="14.1732" class="st3" /> 
   <text x="12.35" y="358.76" class="st2">
    r6
   </text> 
  </g> 
  <g id="shape79-226" transform="translate(283.965,-210.377)"> 
   <title>Sheet.79</title> 
   <desc>
    r7
   </desc> 
   <rect x="0" y="349.274" width="62.3622" height="14.1732" class="st3" /> 
   <text x="12.35" y="358.76" class="st2">
    r7
   </text> 
  </g> 
  <g id="shape80-229" transform="translate(283.965,-196.203)"> 
   <title>Sheet.80</title> 
   <desc>
    r8
   </desc> 
   <rect x="0" y="349.274" width="62.3622" height="14.1732" class="st3" /> 
   <text x="12.35" y="358.76" class="st2">
    r8
   </text> 
  </g> 
  <g id="shape81-232" transform="translate(283.965,-182.03)"> 
   <title>Sheet.81</title> 
   <desc>
    r9
   </desc> 
   <rect x="0" y="349.274" width="62.3622" height="14.1732" class="st3" /> 
   <text x="12.35" y="358.76" class="st2">
    r9
   </text> 
  </g> 
  <g id="shape82-235" transform="translate(283.965,-167.857)"> 
   <title>Sheet.82</title> 
   <desc>
    r10
   </desc> 
   <rect x="0" y="349.274" width="62.3622" height="14.1732" class="st3" /> 
   <text x="12.35" y="358.76" class="st2">
    r10
   </text> 
  </g> 
  <g id="shape83-238" transform="translate(283.965,-153.684)"> 
   <title>Sheet.83</title> 
   <desc>
    r11
   </desc> 
   <rect x="0" y="349.274" width="62.3622" height="14.1732" class="st3" /> 
   <text x="12.35" y="358.76" class="st2">
    r11
   </text> 
  </g> 
  <g id="shape84-241" transform="translate(283.965,-139.51)"> 
   <title>Sheet.84</title> 
   <desc>
    r12
   </desc> 
   <rect x="0" y="349.274" width="62.3622" height="14.1732" class="st3" /> 
   <text x="12.35" y="358.76" class="st2">
    r12
   </text> 
  </g> 
  <g id="shape85-244" transform="translate(283.965,-125.337)"> 
   <title>Sheet.85</title> 
   <desc>
    r13_irq
   </desc> 
   <rect x="0" y="349.274" width="62.3622" height="14.1732" class="st3" /> 
   <text x="12.35" y="358.76" class="st2">
    r13_irq
   </text> 
  </g> 
  <g id="shape86-247" transform="translate(283.965,-111.164)"> 
   <title>Sheet.86</title> 
   <desc>
    r14_irq
   </desc> 
   <rect x="0" y="349.274" width="62.3622" height="14.1732" class="st3" /> 
   <text x="12.35" y="358.76" class="st2">
    r14_irq
   </text> 
  </g> 
  <g id="shape87-250" transform="translate(354.831,-309.589)"> 
   <title>Sheet.87</title> 
   <desc>
    r0
   </desc> 
   <rect x="0" y="349.274" width="62.3622" height="14.1732" class="st3" /> 
   <text x="12.35" y="358.76" class="st2">
    r0
   </text> 
  </g> 
  <g id="shape88-253" transform="translate(354.831,-295.416)"> 
   <title>Sheet.88</title> 
   <desc>
    r1
   </desc> 
   <rect x="0" y="349.274" width="62.3622" height="14.1732" class="st3" /> 
   <text x="12.35" y="358.76" class="st2">
    r1
   </text> 
  </g> 
  <g id="shape89-256" transform="translate(354.831,-281.243)"> 
   <title>Sheet.89</title> 
   <desc>
    r2
   </desc> 
   <rect x="0" y="349.274" width="62.3622" height="14.1732" class="st3" /> 
   <text x="12.35" y="358.76" class="st2">
    r2
   </text> 
  </g> 
  <g id="shape90-259" transform="translate(354.831,-267.069)"> 
   <title>Sheet.90</title> 
   <desc>
    r3
   </desc> 
   <rect x="0" y="349.274" width="62.3622" height="14.1732" class="st3" /> 
   <text x="12.35" y="358.76" class="st2">
    r3
   </text> 
  </g> 
  <g id="shape91-262" transform="translate(354.831,-252.896)"> 
   <title>Sheet.91</title> 
   <desc>
    r4
   </desc> 
   <rect x="0" y="349.274" width="62.3622" height="14.1732" class="st3" /> 
   <text x="12.35" y="358.76" class="st2">
    r4
   </text> 
  </g> 
  <g id="shape92-265" transform="translate(354.831,-238.723)"> 
   <title>Sheet.92</title> 
   <desc>
    r5
   </desc> 
   <rect x="0" y="349.274" width="62.3622" height="14.1732" class="st3" /> 
   <text x="12.35" y="358.76" class="st2">
    r5
   </text> 
  </g> 
  <g id="shape93-268" transform="translate(354.831,-224.55)"> 
   <title>Sheet.93</title> 
   <desc>
    r6
   </desc> 
   <rect x="0" y="349.274" width="62.3622" height="14.1732" class="st3" /> 
   <text x="12.35" y="358.76" class="st2">
    r6
   </text> 
  </g> 
  <g id="shape94-271" transform="translate(354.831,-210.377)"> 
   <title>Sheet.94</title> 
   <desc>
    r7
   </desc> 
   <rect x="0" y="349.274" width="62.3622" height="14.1732" class="st3" /> 
   <text x="12.35" y="358.76" class="st2">
    r7
   </text> 
  </g> 
  <g id="shape95-274" transform="translate(354.831,-196.203)"> 
   <title>Sheet.95</title> 
   <desc>
    r8
   </desc> 
   <rect x="0" y="349.274" width="62.3622" height="14.1732" class="st3" /> 
   <text x="12.35" y="358.76" class="st2">
    r8
   </text> 
  </g> 
  <g id="shape96-277" transform="translate(354.831,-182.03)"> 
   <title>Sheet.96</title> 
   <desc>
    r9
   </desc> 
   <rect x="0" y="349.274" width="62.3622" height="14.1732" class="st3" /> 
   <text x="12.35" y="358.76" class="st2">
    r9
   </text> 
  </g> 
  <g id="shape97-280" transform="translate(354.831,-167.857)"> 
   <title>Sheet.97</title> 
   <desc>
    r10
   </desc> 
   <rect x="0" y="349.274" width="62.3622" height="14.1732" class="st3" /> 
   <text x="12.35" y="358.76" class="st2">
    r10
   </text> 
  </g> 
  <g id="shape98-283" transform="translate(354.831,-153.684)"> 
   <title>Sheet.98</title> 
   <desc>
    r11
   </desc> 
   <rect x="0" y="349.274" width="62.3622" height="14.1732" class="st3" /> 
   <text x="12.35" y="358.76" class="st2">
    r11
   </text> 
  </g> 
  <g id="shape99-286" transform="translate(354.831,-139.51)"> 
   <title>Sheet.99</title> 
   <desc>
    r12
   </desc> 
   <rect x="0" y="349.274" width="62.3622" height="14.1732" class="st3" /> 
   <text x="12.35" y="358.76" class="st2">
    r12
   </text> 
  </g> 
  <g id="shape100-289" transform="translate(354.831,-125.337)"> 
   <title>Sheet.100</title> 
   <desc>
    r13_und
   </desc> 
   <rect x="0" y="349.274" width="62.3622" height="14.1732" class="st3" /> 
   <text x="12.35" y="358.76" class="st2">
    r13_und
   </text> 
  </g> 
  <g id="shape101-292" transform="translate(354.831,-111.164)"> 
   <title>Sheet.101</title> 
   <desc>
    r14_und
   </desc> 
   <rect x="0" y="349.274" width="62.3622" height="14.1732" class="st3" /> 
   <text x="12.35" y="358.76" class="st2">
    r14_und
   </text> 
  </g> 
  <g id="shape102-295" transform="translate(71.3661,-196.203)"> 
   <title>Sheet.102</title> 
   <path d="M0 363.45 L14.17 363.45 L0 349.27 L0 363.45 Z" class="st4" /> 
  </g> 
  <g id="shape103-297" transform="translate(71.3661,-182.03)"> 
   <title>Sheet.103</title> 
   <path d="M0 363.45 L14.17 363.45 L0 349.27 L0 363.45 Z" class="st4" /> 
  </g> 
  <g id="shape104-299" transform="translate(71.3661,-167.857)"> 
   <title>Sheet.104</title> 
   <path d="M0 363.45 L14.17 363.45 L0 349.27 L0 363.45 Z" class="st4" /> 
  </g> 
  <g id="shape105-301" transform="translate(71.3661,-153.684)"> 
   <title>Sheet.105</title> 
   <path d="M0 363.45 L14.17 363.45 L0 349.27 L0 363.45 Z" class="st4" /> 
  </g> 
  <g id="shape106-303" transform="translate(71.3661,-139.51)"> 
   <title>Sheet.106</title> 
   <path d="M0 363.45 L14.17 363.45 L0 349.27 L0 363.45 Z" class="st4" /> 
  </g> 
  <g id="shape107-305" transform="translate(71.3661,-125.337)"> 
   <title>Sheet.107</title> 
   <path d="M0 363.45 L14.17 363.45 L0 349.27 L0 363.45 Z" class="st4" /> 
  </g> 
  <g id="shape108-307" transform="translate(71.3661,-111.164)"> 
   <title>Sheet.108</title> 
   <path d="M0 363.45 L14.17 363.45 L0 349.27 L0 363.45 Z" class="st4" /> 
  </g> 
  <g id="shape109-309" transform="translate(142.232,-125.337)"> 
   <title>Sheet.109</title> 
   <path d="M0 363.45 L14.17 363.45 L0 349.27 L0 363.45 Z" class="st4" /> 
  </g> 
  <g id="shape110-311" transform="translate(142.232,-111.164)"> 
   <title>Sheet.110</title> 
   <path d="M0 363.45 L14.17 363.45 L0 349.27 L0 363.45 Z" class="st4" /> 
  </g> 
  <g id="shape111-313" transform="translate(213.098,-125.337)"> 
   <title>Sheet.111</title> 
   <path d="M0 363.45 L14.17 363.45 L0 349.27 L0 363.45 Z" class="st4" /> 
  </g> 
  <g id="shape112-315" transform="translate(213.098,-111.164)"> 
   <title>Sheet.112</title> 
   <path d="M0 363.45 L14.17 363.45 L0 349.27 L0 363.45 Z" class="st4" /> 
  </g> 
  <g id="shape113-317" transform="translate(283.965,-125.337)"> 
   <title>Sheet.113</title> 
   <path d="M0 363.45 L14.17 363.45 L0 349.27 L0 363.45 Z" class="st4" /> 
  </g> 
  <g id="shape114-319" transform="translate(283.965,-111.164)"> 
   <title>Sheet.114</title> 
   <path d="M0 363.45 L14.17 363.45 L0 349.27 L0 363.45 Z" class="st4" /> 
  </g> 
  <g id="shape115-321" transform="translate(354.831,-125.337)"> 
   <title>Sheet.115</title> 
   <path d="M0 363.45 L14.17 363.45 L0 349.27 L0 363.45 Z" class="st4" /> 
  </g> 
  <g id="shape116-323" transform="translate(354.831,-111.164)"> 
   <title>Sheet.116</title> 
   <path d="M0 363.45 L14.17 363.45 L0 349.27 L0 363.45 Z" class="st4" /> 
  </g> 
  <g id="shape117-325" transform="translate(0.5,-43.0197)"> 
   <title>Sheet.117</title> 
   <desc>
    CPSR
   </desc> 
   <rect x="0" y="349.274" width="62.3622" height="14.1732" class="st3" /> 
   <text x="20.06" y="358.76" class="st2">
    CPSR
   </text> 
  </g> 
  <g id="shape118-328" transform="translate(71.3661,-43.0197)"> 
   <title>Sheet.118</title> 
   <desc>
    CPSR
   </desc> 
   <rect x="0" y="349.274" width="62.3622" height="14.1732" class="st3" /> 
   <text x="20.06" y="358.76" class="st2">
    CPSR
   </text> 
  </g> 
  <g id="shape119-331" transform="translate(142.232,-43.0197)"> 
   <title>Sheet.119</title> 
   <desc>
    CPSR
   </desc> 
   <rect x="0" y="349.274" width="62.3622" height="14.1732" class="st3" /> 
   <text x="20.06" y="358.76" class="st2">
    CPSR
   </text> 
  </g> 
  <g id="shape120-334" transform="translate(213.098,-43.0197)"> 
   <title>Sheet.120</title> 
   <desc>
    CPSR
   </desc> 
   <rect x="0" y="349.274" width="62.3622" height="14.1732" class="st3" /> 
   <text x="20.06" y="358.76" class="st2">
    CPSR
   </text> 
  </g> 
  <g id="shape121-337" transform="translate(283.965,-43.0197)"> 
   <title>Sheet.121</title> 
   <desc>
    CPSR
   </desc> 
   <rect x="0" y="349.274" width="62.3622" height="14.1732" class="st3" /> 
   <text x="20.06" y="358.76" class="st2">
    CPSR
   </text> 
  </g> 
  <g id="shape122-340" transform="translate(354.831,-43.0197)"> 
   <title>Sheet.122</title> 
   <desc>
    CPSR
   </desc> 
   <rect x="0" y="349.274" width="62.3622" height="14.1732" class="st3" /> 
   <text x="20.06" y="358.76" class="st2">
    CPSR
   </text> 
  </g> 
  <g id="shape123-343" transform="translate(71.3661,-28.8465)"> 
   <title>Sheet.123</title> 
   <desc>
    SPSR_fiq
   </desc> 
   <rect x="0" y="349.274" width="62.3622" height="14.1732" class="st3" /> 
   <text x="12.35" y="358.76" class="st2">
    SPSR_fiq
   </text> 
  </g> 
  <g id="shape124-346" transform="translate(71.3661,-28.8465)"> 
   <title>Sheet.124</title> 
   <path d="M0 363.45 L14.17 363.45 L0 349.27 L0 363.45 Z" class="st4" /> 
  </g> 
  <g id="shape125-348" transform="translate(142.232,-28.8465)"> 
   <title>Sheet.125</title> 
   <desc>
    SPSR_svc
   </desc> 
   <rect x="0" y="349.274" width="62.3622" height="14.1732" class="st3" /> 
   <text x="12.35" y="358.76" class="st2">
    SPSR_svc
   </text> 
  </g> 
  <g id="shape126-351" transform="translate(142.232,-28.8465)"> 
   <title>Sheet.126</title> 
   <path d="M0 363.45 L14.17 363.45 L0 349.27 L0 363.45 Z" class="st4" /> 
  </g> 
  <g id="shape127-353" transform="translate(213.098,-28.8465)"> 
   <title>Sheet.127</title> 
   <desc>
    SPSR_abt
   </desc> 
   <rect x="0" y="349.274" width="62.3622" height="14.1732" class="st3" /> 
   <text x="12.35" y="358.76" class="st2">
    SPSR_abt
   </text> 
  </g> 
  <g id="shape128-356" transform="translate(213.098,-28.8465)"> 
   <title>Sheet.128</title> 
   <path d="M0 363.45 L14.17 363.45 L0 349.27 L0 363.45 Z" class="st4" /> 
  </g> 
  <g id="shape129-358" transform="translate(283.965,-28.8465)"> 
   <title>Sheet.129</title> 
   <desc>
    SPSR_irq
   </desc> 
   <rect x="0" y="349.274" width="62.3622" height="14.1732" class="st3" /> 
   <text x="12.35" y="358.76" class="st2">
    SPSR_irq
   </text> 
  </g> 
  <g id="shape130-361" transform="translate(283.965,-28.8465)"> 
   <title>Sheet.130</title> 
   <path d="M0 363.45 L14.17 363.45 L0 349.27 L0 363.45 Z" class="st4" /> 
  </g> 
  <g id="shape131-363" transform="translate(354.831,-28.8465)"> 
   <title>Sheet.131</title> 
   <desc>
    SPSR_und
   </desc> 
   <rect x="0" y="349.274" width="62.3622" height="14.1732" class="st3" /> 
   <text x="12.35" y="358.76" class="st2">
    SPSR_und
   </text> 
  </g> 
  <g id="shape132-366" transform="translate(354.831,-28.8465)"> 
   <title>Sheet.132</title> 
   <path d="M0 363.45 L14.17 363.45 L0 349.27 L0 363.45 Z" class="st4" /> 
  </g> 
  <g id="shape133-368" transform="translate(0.5,-0.5)"> 
   <title>Sheet.133</title> 
   <path d="M0 363.45 L14.17 363.45 L0 349.27 L0 363.45 Z" class="st4" /> 
  </g> 
  <g id="shape134-370" transform="translate(142.232,-96.9907)"> 
   <title>Sheet.134</title> 
   <desc>
    r15 (PC)
   </desc> 
   <rect x="0" y="349.274" width="62.3622" height="14.1732" class="st3" /> 
   <text x="12.35" y="358.76" class="st2">
    r15 (PC)
   </text> 
  </g> 
  <g id="shape135-373" transform="translate(213.098,-96.9907)"> 
   <title>Sheet.135</title> 
   <desc>
    r15 (PC)
   </desc> 
   <rect x="0" y="349.274" width="62.3622" height="14.1732" class="st3" /> 
   <text x="12.35" y="358.76" class="st2">
    r15 (PC)
   </text> 
  </g> 
  <g id="shape136-376" transform="translate(283.965,-96.9907)"> 
   <title>Sheet.136</title> 
   <desc>
    r15 (PC)
   </desc> 
   <rect x="0" y="349.274" width="62.3622" height="14.1732" class="st3" /> 
   <text x="12.35" y="358.76" class="st2">
    r15 (PC)
   </text> 
  </g> 
  <g id="shape137-379" transform="translate(354.831,-96.9907)"> 
   <title>Sheet.137</title> 
   <desc>
    r15 (PC)
   </desc> 
   <rect x="0" y="349.274" width="62.3622" height="14.1732" class="st3" /> 
   <text x="12.35" y="358.76" class="st2">
    r15 (PC)
   </text> 
  </g> 
 </g> 
</svg>